<?xml version="1.0" encoding="UTF-8" standalone="no"?>
<!DOCTYPE svg PUBLIC "-//W3C//DTD SVG 1.1//EN" "http://www.w3.org/Graphics/SVG/1.1/DTD/svg11.dtd">
<svg xmlns="http://www.w3.org/2000/svg" version="1.1" viewBox="0.00 0.00 500.00 500.00">
<g stroke-width="2.00" fill="none" stroke-linecap="butt">
<path stroke="#ffe484" vector-effect="non-scaling-stroke" d="
  M 134.99 289.26
  Q 135.76 289.48 135.06 289.52"
/>
<path stroke="#828384" vector-effect="non-scaling-stroke" d="
  M 135.06 289.52
  L 135.16 314.85
  A 0.57 0.57 0.0 0 0 135.73 315.42
  L 161.19 315.44"
/>
<path stroke="#ffe484" vector-effect="non-scaling-stroke" d="
  M 161.19 315.44
  Q 160.74 315.38 161.29 316.00"
/>
<path stroke="#828384" vector-effect="non-scaling-stroke" d="
  M 161.29 316.00
  L 161.26 420.09
  A 0.35 0.35 0.0 0 0 161.61 420.44
  L 187.46 420.40"
/>
<path stroke="#dedfe0" vector-effect="non-scaling-stroke" d="
  M 187.46 420.40
  Q 186.83 420.16 187.52 420.38"
/>
<path stroke="#828384" vector-effect="non-scaling-stroke" d="
  M 187.52 420.38
  L 187.53 472.19
  Q 187.53 472.73 188.06 472.73
  L 213.75 472.74"
/>
<path stroke="#dedfe0" vector-effect="non-scaling-stroke" d="
  M 213.75 472.74
  Q 213.20 472.78 213.75 473.04"
/>
<path stroke="#828384" vector-effect="non-scaling-stroke" d="
  M 213.75 473.04
  L 213.77 498.51
  Q 213.77 499.00 214.26 499.00
  L 291.99 499.00
  Q 292.48 499.00 292.48 498.51
  L 292.48 473.25"
/>
<path stroke="#f4f4f5" vector-effect="non-scaling-stroke" d="
  M 292.48 473.25
  Q 292.61 472.72 292.45 472.73"
/>
<path stroke="#828384" vector-effect="non-scaling-stroke" d="
  M 292.45 472.73
  L 317.90 472.72
  Q 318.40 472.72 318.40 472.23
  L 318.66 420.29"
/>
<path stroke="#828384" vector-effect="non-scaling-stroke" d="
  M 318.66 420.29
  L 344.09 420.36
  Q 344.67 420.37 344.67 419.79
  L 344.68 315.49"
/>
<path stroke="#feed82" vector-effect="non-scaling-stroke" d="
  M 344.68 315.49
  Q 344.02 314.87 344.79 315.43"
/>
<path stroke="#828384" vector-effect="non-scaling-stroke" d="
  M 344.79 315.43
  L 370.52 315.46
  Q 371.00 315.46 371.00 314.98
  L 371.00 289.75
  A 0.50 0.50 0.0 0 1 371.50 289.25
  L 396.71 289.25
  Q 397.21 289.25 397.21 288.75
  L 397.22 263.26"
/>
<path stroke="#feed82" vector-effect="non-scaling-stroke" d="
  M 397.22 263.26
  Q 398.47 263.01 397.25 263.13"
/>
<path stroke="#828384" vector-effect="non-scaling-stroke" d="
  M 397.25 263.13
  L 423.05 263.20
  A 0.45 0.44 -0.0 0 0 423.50 262.76
  L 423.50 106.46
  Q 423.50 105.83 422.87 105.83
  L 397.25 105.91"
/>
<path stroke="#828384" vector-effect="non-scaling-stroke" d="
  M 397.25 105.91
  L 397.23 80.31
  Q 397.23 79.77 396.69 79.77
  L 371.00 79.76"
/>
<path stroke="#828384" vector-effect="non-scaling-stroke" d="
  M 371.00 79.76
  L 370.99 54.00
  Q 370.99 53.50 370.49 53.50
  L 345.50 53.50
  A 0.75 0.75 0.0 0 1 344.75 52.75
  L 344.75 27.75
  Q 344.75 27.25 344.25 27.25
  L 319.00 27.25
  A 0.50 0.50 0.0 0 1 318.50 26.75
  L 318.50 1.50
  Q 318.50 1.00 318.00 1.00
  L 188.00 1.00
  Q 187.50 1.00 187.50 1.50
  L 187.50 26.75
  A 0.50 0.50 0.0 0 1 187.00 27.25
  L 161.75 27.25
  Q 161.25 27.25 161.25 27.75
  L 161.25 52.75
  A 0.75 0.75 0.0 0 1 160.50 53.50
  L 135.50 53.50
  Q 135.00 53.50 135.00 54.00
  L 135.00 79.07
  Q 135.00 79.65 134.42 79.65
  L 109.24 79.77
  Q 108.75 79.77 108.75 80.26
  L 108.75 105.25
  Q 108.75 105.75 108.25 105.75
  L 83.32 105.75
  Q 82.64 105.75 82.64 106.43
  L 82.73 262.75
  Q 82.73 263.27 83.25 263.27
  L 108.26 263.20
  Q 108.76 263.20 108.76 263.70
  L 108.75 288.73
  Q 108.75 289.30 109.32 289.30
  L 134.99 289.26"
/>
<path stroke="#817106" vector-effect="non-scaling-stroke" d="
  M 371.00 79.76
  L 345.50 79.75
  A 0.76 0.75 90.0 0 1 344.75 78.99
  L 344.75 54.00
  Q 344.75 53.50 344.25 53.50
  L 319.00 53.50
  A 0.50 0.50 0.0 0 1 318.50 53.00
  L 318.50 27.75
  Q 318.50 27.25 318.00 27.25
  L 188.25 27.25
  A 0.75 0.75 0.0 0 0 187.50 28.00
  L 187.50 53.00
  A 0.51 0.50 -90.0 0 1 187.00 53.51
  L 161.73 53.48
  Q 161.25 53.48 161.25 53.96
  L 161.25 79.26
  A 0.51 0.50 -0.0 0 1 160.74 79.76
  L 136.23 79.72
  Q 134.96 79.72 134.95 80.99
  L 134.93 105.75"
/>
<path stroke="#826709" vector-effect="non-scaling-stroke" d="
  M 134.93 105.75
  L 109.61 105.75
  A 0.86 0.85 90.0 0 0 108.76 106.61
  L 108.75 262.25
  A 1.00 1.00 0.0 0 0 109.75 263.25
  L 134.49 263.25
  Q 134.99 263.25 134.99 263.75
  L 134.99 289.26"
/>
<path stroke="#826709" vector-effect="non-scaling-stroke" d="
  M 214.22 368.00
  L 188.07 368.06
  Q 187.50 368.07 187.50 367.50
  L 187.50 316.27
  Q 187.50 315.82 187.05 315.80
  Q 174.10 315.27 161.29 316.00"
/>
<path stroke="#826709" vector-effect="non-scaling-stroke" d="
  M 161.19 315.44
  L 161.22 290.06
  Q 161.22 289.53 160.69 289.53
  L 135.06 289.52"
/>
<path stroke="#817106" vector-effect="non-scaling-stroke" d="
  M 371.00 79.76
  L 371.00 105.12
  A 0.69 0.69 0.0 0 0 371.68 105.81
  L 397.25 105.91"
/>
<path stroke="#817106" vector-effect="non-scaling-stroke" d="
  M 397.25 105.91
  L 397.25 263.13"
/>
<path stroke="#817106" vector-effect="non-scaling-stroke" d="
  M 397.22 263.26
  L 371.51 263.26
  A 0.51 0.51 0.0 0 0 371.00 263.77
  L 371.00 288.75
  Q 371.00 289.31 370.44 289.31
  L 345.31 289.22
  Q 344.80 289.22 344.80 289.73
  L 344.79 315.43"
/>
<path stroke="#817106" vector-effect="non-scaling-stroke" d="
  M 344.68 315.49
  L 319.11 315.49
  A 0.44 0.43 -90.0 0 0 318.68 315.93
  L 318.59 367.55
  A 0.45 0.45 0.0 0 1 318.14 368.00
  L 266.75 368.00
  A 0.50 0.50 0.0 0 1 266.25 367.50
  L 266.25 263.97
  Q 266.25 263.19 265.47 263.19
  L 241.23 263.27
  A 1.23 1.23 0.0 0 1 240.00 262.04
  L 240.00 237.61
  Q 240.00 236.97 239.36 236.96
  L 214.08 236.85
  A 0.33 0.33 0.0 0 1 213.75 236.52
  L 213.75 185.00
  Q 213.75 184.50 213.25 184.50
  L 188.00 184.50
  Q 187.50 184.50 187.50 185.00
  L 187.50 236.50
  Q 187.50 237.00 188.00 237.00
  L 213.25 237.00
  Q 213.75 237.00 213.75 237.50
  L 213.75 262.75
  A 0.50 0.50 0.0 0 0 214.25 263.25
  L 239.50 263.25
  Q 240.00 263.25 240.00 263.75
  L 240.00 367.25
  A 0.75 0.75 0.0 0 1 239.25 368.00
  L 214.22 368.00"
/>
<path stroke="#fed207" vector-effect="non-scaling-stroke" d="
  M 214.22 368.00
  L 213.73 290.02
  Q 213.72 289.32 213.02 289.31
  L 188.48 289.22
  A 0.99 0.98 -90.0 0 1 187.50 288.23
  L 187.50 263.47
  A 0.53 0.52 89.5 0 0 186.97 262.94
  L 162.66 263.14
  Q 161.01 263.16 161.01 261.51
  Q 161.02 259.39 161.81 257.65
  A 1.38 1.36 -41.1 0 0 161.88 256.73
  Q 161.36 254.86 161.47 252.50
  C 162.12 239.03 161.26 225.02 161.25 211.52
  A 0.78 0.77 0.0 0 0 160.47 210.75
  L 135.67 210.71
  A 0.61 0.61 0.0 0 1 135.06 210.11
  C 134.34 180.78 134.97 151.16 135.10 121.81
  Q 135.14 113.64 135.55 108.91
  Q 135.60 108.41 135.19 108.11
  Q 133.07 106.55 134.93 105.75"
/>
<path stroke="#77787a" vector-effect="non-scaling-stroke" d="
  M 318.66 420.29
  L 318.51 394.83
  Q 318.50 394.28 317.95 394.28
  L 213.53 394.27"
/>
<path stroke="#616264" vector-effect="non-scaling-stroke" d="
  M 213.53 394.27
  L 188.06 394.28
  Q 187.52 394.28 187.52 394.82
  L 187.46 420.40"
/>
<path stroke="#d3d4d6" vector-effect="non-scaling-stroke" d="
  M 213.53 394.27
  L 213.57 420.29"
/>
<path stroke="#616264" vector-effect="non-scaling-stroke" d="
  M 213.57 420.29
  L 187.52 420.38"
/>
<path stroke="#77787a" vector-effect="non-scaling-stroke" d="
  M 318.66 420.29
  L 213.57 420.29"
/>
<path stroke="#77787a" vector-effect="non-scaling-stroke" d="
  M 292.45 472.73
  L 292.42 447.26
  A 0.54 0.54 0.0 0 0 291.88 446.72
  L 266.08 446.82"
/>
<path stroke="#616264" vector-effect="non-scaling-stroke" d="
  M 266.08 446.82
  L 214.32 446.51
  Q 213.77 446.51 213.77 447.06
  L 213.75 472.74"
/>
<path stroke="#77787a" vector-effect="non-scaling-stroke" d="
  M 292.48 473.25
  Q 292.31 473.20 292.23 473.03
  Q 292.14 472.81 291.91 472.81
  L 266.07 472.82"
/>
<path stroke="#d3d4d6" vector-effect="non-scaling-stroke" d="
  M 266.08 446.82
  L 266.07 472.82"
/>
<path stroke="#616264" vector-effect="non-scaling-stroke" d="
  M 266.07 472.82
  L 213.75 473.04"
/>
<path stroke="#feed82" vector-effect="non-scaling-stroke" d="
  M 345.49 132.00
  A 0.72 0.72 0.0 0 1 344.77 131.28
  L 344.74 106.41
  A 0.72 0.72 0.0 0 0 344.01 105.69
  L 319.27 105.97
  A 0.72 0.72 0.0 0 0 318.56 106.70
  L 318.74 131.29
  A 0.72 0.72 0.0 0 0 319.46 132.00
  L 344.03 132.00
  A 0.72 0.72 0.0 0 1 344.75 132.72
  L 344.75 183.78
  A 0.72 0.72 0.0 0 0 345.47 184.50
  L 370.28 184.50
  A 0.72 0.72 0.0 0 0 371.00 183.78
  L 371.00 132.72
  A 0.72 0.72 0.0 0 0 370.28 132.00
  L 345.49 132.00"
/>
<path stroke="#817106" vector-effect="non-scaling-stroke" d="
  M 292.50 237.37
  A 0.40 0.40 0.0 0 1 292.90 236.97
  L 318.37 237.02
  A 0.40 0.40 0.0 0 0 318.77 236.62
  L 318.42 184.90
  A 0.40 0.40 0.0 0 0 318.02 184.50
  L 292.89 184.50
  A 0.40 0.40 0.0 0 0 292.49 184.90
  L 292.51 236.58
  A 0.40 0.40 0.0 0 1 292.10 236.98
  L 266.66 236.67
  A 0.40 0.40 0.0 0 0 266.25 237.07
  L 266.25 262.84
  A 0.40 0.40 0.0 0 0 266.65 263.24
  L 292.10 263.26
  A 0.40 0.40 0.0 0 0 292.50 262.86
  L 292.50 237.37"
/>
</g>
<path fill="#050608" d="
  M 371.00 79.76
  L 345.50 79.75
  A 0.76 0.75 90.0 0 1 344.75 78.99
  L 344.75 54.00
  Q 344.75 53.50 344.25 53.50
  L 319.00 53.50
  A 0.50 0.50 0.0 0 1 318.50 53.00
  L 318.50 27.75
  Q 318.50 27.25 318.00 27.25
  L 188.25 27.25
  A 0.75 0.75 0.0 0 0 187.50 28.00
  L 187.50 53.00
  A 0.51 0.50 -90.0 0 1 187.00 53.51
  L 161.73 53.48
  Q 161.25 53.48 161.25 53.96
  L 161.25 79.26
  A 0.51 0.50 -0.0 0 1 160.74 79.76
  L 136.23 79.72
  Q 134.96 79.72 134.95 80.99
  L 134.93 105.75
  L 109.61 105.75
  A 0.86 0.85 90.0 0 0 108.76 106.61
  L 108.75 262.25
  A 1.00 1.00 0.0 0 0 109.75 263.25
  L 134.49 263.25
  Q 134.99 263.25 134.99 263.75
  L 134.99 289.26
  L 109.32 289.30
  Q 108.75 289.30 108.75 288.73
  L 108.76 263.70
  Q 108.76 263.20 108.26 263.20
  L 83.25 263.27
  Q 82.73 263.27 82.73 262.75
  L 82.64 106.43
  Q 82.64 105.75 83.32 105.75
  L 108.25 105.75
  Q 108.75 105.75 108.75 105.25
  L 108.75 80.26
  Q 108.75 79.77 109.24 79.77
  L 134.42 79.65
  Q 135.00 79.65 135.00 79.07
  L 135.00 54.00
  Q 135.00 53.50 135.50 53.50
  L 160.50 53.50
  A 0.75 0.75 0.0 0 0 161.25 52.75
  L 161.25 27.75
  Q 161.25 27.25 161.75 27.25
  L 187.00 27.25
  A 0.50 0.50 0.0 0 0 187.50 26.75
  L 187.50 1.50
  Q 187.50 1.00 188.00 1.00
  L 318.00 1.00
  Q 318.50 1.00 318.50 1.50
  L 318.50 26.75
  A 0.50 0.50 0.0 0 0 319.00 27.25
  L 344.25 27.25
  Q 344.75 27.25 344.75 27.75
  L 344.75 52.75
  A 0.75 0.75 0.0 0 0 345.50 53.50
  L 370.49 53.50
  Q 370.99 53.50 370.99 54.00
  L 371.00 79.76
  Z"
/>
<path fill="#fcdb04" d="
  M 371.00 79.76
  L 371.00 105.12
  A 0.69 0.69 0.0 0 0 371.68 105.81
  L 397.25 105.91
  L 397.25 263.13
  Q 398.47 263.01 397.22 263.26
  L 371.51 263.26
  A 0.51 0.51 0.0 0 0 371.00 263.77
  L 371.00 288.75
  Q 371.00 289.31 370.44 289.31
  L 345.31 289.22
  Q 344.80 289.22 344.80 289.73
  L 344.79 315.43
  Q 344.02 314.87 344.68 315.49
  L 319.11 315.49
  A 0.44 0.43 -90.0 0 0 318.68 315.93
  L 318.59 367.55
  A 0.45 0.45 0.0 0 1 318.14 368.00
  L 266.75 368.00
  A 0.50 0.50 0.0 0 1 266.25 367.50
  L 266.25 263.97
  Q 266.25 263.19 265.47 263.19
  L 241.23 263.27
  A 1.23 1.23 0.0 0 1 240.00 262.04
  L 240.00 237.61
  Q 240.00 236.97 239.36 236.96
  L 214.08 236.85
  A 0.33 0.33 0.0 0 1 213.75 236.52
  L 213.75 185.00
  Q 213.75 184.50 213.25 184.50
  L 188.00 184.50
  Q 187.50 184.50 187.50 185.00
  L 187.50 236.50
  Q 187.50 237.00 188.00 237.00
  L 213.25 237.00
  Q 213.75 237.00 213.75 237.50
  L 213.75 262.75
  A 0.50 0.50 0.0 0 0 214.25 263.25
  L 239.50 263.25
  Q 240.00 263.25 240.00 263.75
  L 240.00 367.25
  A 0.75 0.75 0.0 0 1 239.25 368.00
  L 214.22 368.00
  L 213.73 290.02
  Q 213.72 289.32 213.02 289.31
  L 188.48 289.22
  A 0.99 0.98 -90.0 0 1 187.50 288.23
  L 187.50 263.47
  A 0.53 0.52 89.5 0 0 186.97 262.94
  L 162.66 263.14
  Q 161.01 263.16 161.01 261.51
  Q 161.02 259.39 161.81 257.65
  A 1.38 1.36 -41.1 0 0 161.88 256.73
  Q 161.36 254.86 161.47 252.50
  C 162.12 239.03 161.26 225.02 161.25 211.52
  A 0.78 0.77 0.0 0 0 160.47 210.75
  L 135.67 210.71
  A 0.61 0.61 0.0 0 1 135.06 210.11
  C 134.34 180.78 134.97 151.16 135.10 121.81
  Q 135.14 113.64 135.55 108.91
  Q 135.60 108.41 135.19 108.11
  Q 133.07 106.55 134.93 105.75
  L 134.95 80.99
  Q 134.96 79.72 136.23 79.72
  L 160.74 79.76
  A 0.51 0.50 -0.0 0 0 161.25 79.26
  L 161.25 53.96
  Q 161.25 53.48 161.73 53.48
  L 187.00 53.51
  A 0.51 0.50 -90.0 0 0 187.50 53.00
  L 187.50 28.00
  A 0.75 0.75 0.0 0 1 188.25 27.25
  L 318.00 27.25
  Q 318.50 27.25 318.50 27.75
  L 318.50 53.00
  A 0.50 0.50 0.0 0 0 319.00 53.50
  L 344.25 53.50
  Q 344.75 53.50 344.75 54.00
  L 344.75 78.99
  A 0.76 0.75 90.0 0 0 345.50 79.75
  L 371.00 79.76
  Z
  M 345.49 132.00
  A 0.72 0.72 0.0 0 1 344.77 131.28
  L 344.74 106.41
  A 0.72 0.72 0.0 0 0 344.01 105.69
  L 319.27 105.97
  A 0.72 0.72 0.0 0 0 318.56 106.70
  L 318.74 131.29
  A 0.72 0.72 0.0 0 0 319.46 132.00
  L 344.03 132.00
  A 0.72 0.72 0.0 0 1 344.75 132.72
  L 344.75 183.78
  A 0.72 0.72 0.0 0 0 345.47 184.50
  L 370.28 184.50
  A 0.72 0.72 0.0 0 0 371.00 183.78
  L 371.00 132.72
  A 0.72 0.72 0.0 0 0 370.28 132.00
  L 345.49 132.00
  Z
  M 292.50 237.37
  A 0.40 0.40 0.0 0 1 292.90 236.97
  L 318.37 237.02
  A 0.40 0.40 0.0 0 0 318.77 236.62
  L 318.42 184.90
  A 0.40 0.40 0.0 0 0 318.02 184.50
  L 292.89 184.50
  A 0.40 0.40 0.0 0 0 292.49 184.90
  L 292.51 236.58
  A 0.40 0.40 0.0 0 1 292.10 236.98
  L 266.66 236.67
  A 0.40 0.40 0.0 0 0 266.25 237.07
  L 266.25 262.84
  A 0.40 0.40 0.0 0 0 266.65 263.24
  L 292.10 263.26
  A 0.40 0.40 0.0 0 0 292.50 262.86
  L 292.50 237.37
  Z"
/>
<path fill="#050608" d="
  M 371.00 79.76
  L 396.69 79.77
  Q 397.23 79.77 397.23 80.31
  L 397.25 105.91
  L 371.68 105.81
  A 0.69 0.69 0.0 0 1 371.00 105.12
  L 371.00 79.76
  Z"
/>
<path fill="#ffc809" d="
  M 134.93 105.75
  Q 133.07 106.55 135.19 108.11
  Q 135.60 108.41 135.55 108.91
  Q 135.14 113.64 135.10 121.81
  C 134.97 151.16 134.34 180.78 135.06 210.11
  A 0.61 0.61 0.0 0 0 135.67 210.71
  L 160.47 210.75
  A 0.78 0.77 -0.0 0 1 161.25 211.52
  C 161.26 225.02 162.12 239.03 161.47 252.50
  Q 161.36 254.86 161.88 256.73
  A 1.38 1.36 -41.1 0 1 161.81 257.65
  Q 161.02 259.39 161.01 261.51
  Q 161.01 263.16 162.66 263.14
  L 186.97 262.94
  A 0.53 0.52 89.5 0 1 187.50 263.47
  L 187.50 288.23
  A 0.99 0.98 -90.0 0 0 188.48 289.22
  L 213.02 289.31
  Q 213.72 289.32 213.73 290.02
  L 214.22 368.00
  L 188.07 368.06
  Q 187.50 368.07 187.50 367.50
  L 187.50 316.27
  Q 187.50 315.82 187.05 315.80
  Q 174.10 315.27 161.29 316.00
  Q 160.74 315.38 161.19 315.44
  L 161.22 290.06
  Q 161.22 289.53 160.69 289.53
  L 135.06 289.52
  Q 135.76 289.48 134.99 289.26
  L 134.99 263.75
  Q 134.99 263.25 134.49 263.25
  L 109.75 263.25
  A 1.00 1.00 0.0 0 1 108.75 262.25
  L 108.76 106.61
  A 0.86 0.85 90.0 0 1 109.61 105.75
  L 134.93 105.75
  Z"
/>
<path fill="#ffffff" d="
  M 345.49 132.00
  L 370.28 132.00
  A 0.72 0.72 0.0 0 1 371.00 132.72
  L 371.00 183.78
  A 0.72 0.72 0.0 0 1 370.28 184.50
  L 345.47 184.50
  A 0.72 0.72 0.0 0 1 344.75 183.78
  L 344.75 132.72
  A 0.72 0.72 0.0 0 0 344.03 132.00
  L 319.46 132.00
  A 0.72 0.72 0.0 0 1 318.74 131.29
  L 318.56 106.70
  A 0.72 0.72 0.0 0 1 319.27 105.97
  L 344.01 105.69
  A 0.72 0.72 0.0 0 1 344.74 106.41
  L 344.77 131.28
  A 0.72 0.72 0.0 0 0 345.49 132.00
  Z"
/>
<path fill="#050608" d="
  M 397.25 263.13
  L 397.25 105.91
  L 422.87 105.83
  Q 423.50 105.83 423.50 106.46
  L 423.50 262.76
  A 0.45 0.44 -0.0 0 1 423.05 263.20
  L 397.25 263.13
  Z"
/>
<path fill="#050608" d="
  M 344.68 315.49
  L 344.67 419.79
  Q 344.67 420.37 344.09 420.36
  L 318.66 420.29
  L 318.51 394.83
  Q 318.50 394.28 317.95 394.28
  L 213.53 394.27
  L 188.06 394.28
  Q 187.52 394.28 187.52 394.82
  L 187.46 420.40
  L 161.61 420.44
  A 0.35 0.35 0.0 0 1 161.26 420.09
  L 161.29 316.00
  Q 174.10 315.27 187.05 315.80
  Q 187.50 315.82 187.50 316.27
  L 187.50 367.50
  Q 187.50 368.07 188.07 368.06
  L 214.22 368.00
  L 239.25 368.00
  A 0.75 0.75 0.0 0 0 240.00 367.25
  L 240.00 263.75
  Q 240.00 263.25 239.50 263.25
  L 214.25 263.25
  A 0.50 0.50 0.0 0 1 213.75 262.75
  L 213.75 237.50
  Q 213.75 237.00 213.25 237.00
  L 188.00 237.00
  Q 187.50 237.00 187.50 236.50
  L 187.50 185.00
  Q 187.50 184.50 188.00 184.50
  L 213.25 184.50
  Q 213.75 184.50 213.75 185.00
  L 213.75 236.52
  A 0.33 0.33 0.0 0 0 214.08 236.85
  L 239.36 236.96
  Q 240.00 236.97 240.00 237.61
  L 240.00 262.04
  A 1.23 1.23 0.0 0 0 241.23 263.27
  L 265.47 263.19
  Q 266.25 263.19 266.25 263.97
  L 266.25 367.50
  A 0.50 0.50 0.0 0 0 266.75 368.00
  L 318.14 368.00
  A 0.45 0.45 0.0 0 0 318.59 367.55
  L 318.68 315.93
  A 0.44 0.43 -90.0 0 1 319.11 315.49
  L 344.68 315.49
  Z"
/>
<path fill="#050608" d="
  M 292.50 237.37
  L 292.50 262.86
  A 0.40 0.40 0.0 0 1 292.10 263.26
  L 266.65 263.24
  A 0.40 0.40 0.0 0 1 266.25 262.84
  L 266.25 237.07
  A 0.40 0.40 0.0 0 1 266.66 236.67
  L 292.10 236.98
  A 0.40 0.40 0.0 0 0 292.51 236.58
  L 292.49 184.90
  A 0.40 0.40 0.0 0 1 292.89 184.50
  L 318.02 184.50
  A 0.40 0.40 0.0 0 1 318.42 184.90
  L 318.77 236.62
  A 0.40 0.40 0.0 0 1 318.37 237.02
  L 292.90 236.97
  A 0.40 0.40 0.0 0 0 292.50 237.37
  Z"
/>
<path fill="#050608" d="
  M 397.22 263.26
  L 397.21 288.75
  Q 397.21 289.25 396.71 289.25
  L 371.50 289.25
  A 0.50 0.50 0.0 0 0 371.00 289.75
  L 371.00 314.98
  Q 371.00 315.46 370.52 315.46
  L 344.79 315.43
  L 344.80 289.73
  Q 344.80 289.22 345.31 289.22
  L 370.44 289.31
  Q 371.00 289.31 371.00 288.75
  L 371.00 263.77
  A 0.51 0.51 0.0 0 1 371.51 263.26
  L 397.22 263.26
  Z"
/>
<path fill="#050608" d="
  M 135.06 289.52
  L 160.69 289.53
  Q 161.22 289.53 161.22 290.06
  L 161.19 315.44
  L 135.73 315.42
  A 0.57 0.57 0.0 0 1 135.16 314.85
  L 135.06 289.52
  Z"
/>
<path fill="#bdbec0" d="
  M 213.53 394.27
  L 213.57 420.29
  L 187.52 420.38
  Q 186.83 420.16 187.46 420.40
  L 187.52 394.82
  Q 187.52 394.28 188.06 394.28
  L 213.53 394.27
  Z"
/>
<path fill="#e8e9eb" d="
  M 213.53 394.27
  L 317.95 394.28
  Q 318.50 394.28 318.51 394.83
  L 318.66 420.29
  L 213.57 420.29
  L 213.53 394.27
  Z"
/>
<path fill="#050608" d="
  M 213.57 420.29
  L 318.66 420.29
  L 318.40 472.23
  Q 318.40 472.72 317.90 472.72
  L 292.45 472.73
  L 292.42 447.26
  A 0.54 0.54 0.0 0 0 291.88 446.72
  L 266.08 446.82
  L 214.32 446.51
  Q 213.77 446.51 213.77 447.06
  L 213.75 472.74
  L 188.06 472.73
  Q 187.53 472.73 187.53 472.19
  L 187.52 420.38
  L 213.57 420.29
  Z"
/>
<path fill="#bdbec0" d="
  M 266.08 446.82
  L 266.07 472.82
  L 213.75 473.04
  Q 213.20 472.78 213.75 472.74
  L 213.77 447.06
  Q 213.77 446.51 214.32 446.51
  L 266.08 446.82
  Z"
/>
<path fill="#e8e9eb" d="
  M 292.45 472.73
  Q 292.61 472.72 292.48 473.25
  Q 292.31 473.20 292.23 473.03
  Q 292.14 472.81 291.91 472.81
  L 266.07 472.82
  L 266.08 446.82
  L 291.88 446.72
  A 0.54 0.54 0.0 0 1 292.42 447.26
  L 292.45 472.73
  Z"
/>
<path fill="#050608" d="
  M 266.07 472.82
  L 291.91 472.81
  Q 292.14 472.81 292.23 473.03
  Q 292.31 473.20 292.48 473.25
  L 292.48 498.51
  Q 292.48 499.00 291.99 499.00
  L 214.26 499.00
  Q 213.77 499.00 213.77 498.51
  L 213.75 473.04
  L 266.07 472.82
  Z"
/>
</svg>
