<svg xmlns="http://www.w3.org/2000/svg" viewBox="0 0 500 500"><path fill="#050608" d="m371 79.76-25.5-.01a.76.75 90 0 1-.75-.76V54q0-.5-.5-.5H319a.5.5 0 0 1-.5-.5V27.75q0-.5-.5-.5H188.25a.75.75 0 0 0-.75.75v25a.51.5-90 0 1-.5.51l-25.27-.03q-.48 0-.48.48v25.3a.51.5 0 0 1-.51.5l-24.51-.04q-1.27 0-1.28 1.27l-.02 24.76h-25.32a.86.85 90 0 0-.85.86l-.01 155.64a1 1 0 0 0 1 1h24.74q.5 0 .5.5v25.51l-25.67.04q-.57 0-.57-.57l.01-25.03q0-.5-.5-.5l-25.01.07q-.52 0-.52-.52l-.09-156.32q0-.68.68-.68h24.93q.5 0 .5-.5V80.26q0-.49.49-.49l25.18-.12q.58 0 .58-.58V54q0-.5.5-.5h25a.75.75 0 0 0 .75-.75v-25q0-.5.5-.5H187a.5.5 0 0 0 .5-.5V1.5q0-.5.5-.5h130q.5 0 .5.5v25.25a.5.5 0 0 0 .5.5h25.25q.5 0 .5.5v25a.75.75 0 0 0 .75.75h24.99q.5 0 .5.5l.01 25.76Z"/><path fill="#fcdb04" d="M371 79.76v25.36a.69.69 0 0 0 .68.69l25.57.1v157.22q1.22-.12-.03.13h-25.71a.51.51 0 0 0-.51.51v24.98q0 .56-.56.56l-25.13-.09q-.51 0-.51.51l-.01 25.7q-.77-.56-.11.06h-25.57a.44.43-90 0 0-.43.44l-.09 51.62a.45.45 0 0 1-.45.45h-51.39a.5.5 0 0 1-.5-.5V263.97q0-.78-.78-.78l-24.24.08a1.23 1.23 0 0 1-1.23-1.23v-24.43q0-.64-.64-.65l-25.28-.11a.33.33 0 0 1-.33-.33V185q0-.5-.5-.5H188q-.5 0-.5.5v51.5q0 .5.5.5h25.25q.5 0 .5.5v25.25a.5.5 0 0 0 .5.5h25.25q.5 0 .5.5v103.5a.75.75 0 0 1-.75.75h-25.03l-.49-77.98q-.01-.7-.71-.71l-24.54-.09a.99.98-90 0 1-.98-.99v-24.76a.53.52 89.5 0 0-.53-.53l-24.31.2q-1.65.02-1.65-1.63.01-2.12.8-3.86a1.38 1.36-41.1 0 0 .07-.92q-.52-1.87-.41-4.23c.65-13.47-.21-27.48-.22-40.98a.78.77 0 0 0-.78-.77l-24.8-.04a.61.61 0 0 1-.61-.6c-.72-29.33-.09-58.95.04-88.3q.04-8.17.45-12.9.05-.5-.36-.8-2.12-1.56-.26-2.36l.02-24.76q.01-1.27 1.28-1.27l24.51.04a.51.5 0 0 0 .51-.5v-25.3q0-.48.48-.48l25.27.03a.51.5-90 0 0 .5-.51V28a.75.75 0 0 1 .75-.75H318q.5 0 .5.5V53a.5.5 0 0 0 .5.5h25.25q.5 0 .5.5v24.99a.76.75 90 0 0 .75.76l25.5.01ZM345.49 132a.72.72 0 0 1-.72-.72l-.03-24.87a.72.72 0 0 0-.73-.72l-24.74.28a.72.72 0 0 0-.71.73l.18 24.59a.72.72 0 0 0 .72.71h24.57a.72.72 0 0 1 .72.72v51.06a.72.72 0 0 0 .72.72h24.81a.72.72 0 0 0 .72-.72v-51.06a.72.72 0 0 0-.72-.72h-24.79ZM292.5 237.37a.4.4 0 0 1 .4-.4l25.47.05a.4.4 0 0 0 .4-.4l-.35-51.72a.4.4 0 0 0-.4-.4h-25.13a.4.4 0 0 0-.4.4l.02 51.68a.4.4 0 0 1-.41.4l-25.44-.31a.4.4 0 0 0-.41.4v25.77a.4.4 0 0 0 .4.4l25.45.02a.4.4 0 0 0 .4-.4v-25.49Z"/><path fill="#050608" d="m371 79.76 25.69.01q.54 0 .54.54l.02 25.6-25.57-.1a.69.69 0 0 1-.68-.69V79.76Z"/><path fill="#ffc809" d="M134.93 105.75q-1.86.8.26 2.36.41.3.36.8-.41 4.73-.45 12.9c-.13 29.35-.76 58.97-.04 88.3a.61.61 0 0 0 .61.6l24.8.04a.78.77 0 0 1 .78.77c.01 13.5.87 27.51.22 40.98q-.11 2.36.41 4.23a1.38 1.36-41.1 0 1-.07.92q-.79 1.74-.8 3.86 0 1.65 1.65 1.63l24.31-.2a.53.52 89.5 0 1 .53.53v24.76a.99.98-90 0 0 .98.99l24.54.09q.7.01.71.71l.49 77.98-26.15.06q-.57.01-.57-.56v-51.23q0-.45-.45-.47-12.95-.53-25.76.2-.55-.62-.1-.56l.03-25.38q0-.53-.53-.53l-25.63-.01q.7-.04-.07-.26v-25.51q0-.5-.5-.5h-24.74a1 1 0 0 1-1-1l.01-155.64a.86.85 90 0 1 .85-.86h25.32Z"/><path fill="#fff" d="M345.49 132h24.79a.72.72 0 0 1 .72.72v51.06a.72.72 0 0 1-.72.72h-24.81a.72.72 0 0 1-.72-.72v-51.06a.72.72 0 0 0-.72-.72h-24.57a.72.72 0 0 1-.72-.71l-.18-24.59a.72.72 0 0 1 .71-.73l24.74-.28a.72.72 0 0 1 .73.72l.03 24.87a.72.72 0 0 0 .72.72Z"/><path fill="#050608" d="M397.25 263.13V105.91l25.62-.08q.63 0 .63.63v156.3a.45.44 0 0 1-.45.44l-25.8-.07ZM344.68 315.49l-.01 104.3q0 .58-.58.57l-25.43-.07-.15-25.46q-.01-.55-.56-.55l-104.42-.01-25.47.01q-.54 0-.54.54l-.06 25.58-25.85.04a.35.35 0 0 1-.35-.35l.03-104.09q12.81-.73 25.76-.2.45.02.45.47v51.23q0 .57.57.56l26.15-.06h25.03a.75.75 0 0 0 .75-.75v-103.5q0-.5-.5-.5h-25.25a.5.5 0 0 1-.5-.5V237.5q0-.5-.5-.5H188q-.5 0-.5-.5V185q0-.5.5-.5h25.25q.5 0 .5.5v51.52a.33.33 0 0 0 .33.33l25.28.11q.64.01.64.65v24.43a1.23 1.23 0 0 0 1.23 1.23l24.24-.08q.78 0 .78.78V367.5a.5.5 0 0 0 .5.5h51.39a.45.45 0 0 0 .45-.45l.09-51.62a.44.43-90 0 1 .43-.44h25.57Z"/><path fill="#050608" d="M292.5 237.37v25.49a.4.4 0 0 1-.4.4l-25.45-.02a.4.4 0 0 1-.4-.4v-25.77a.4.4 0 0 1 .41-.4l25.44.31a.4.4 0 0 0 .41-.4l-.02-51.68a.4.4 0 0 1 .4-.4h25.13a.4.4 0 0 1 .4.4l.35 51.72a.4.4 0 0 1-.4.4l-25.47-.05a.4.4 0 0 0-.4.4ZM397.22 263.26l-.01 25.49q0 .5-.5.5H371.5a.5.5 0 0 0-.5.5v25.23q0 .48-.48.48l-25.73-.03.01-25.7q0-.51.51-.51l25.13.09q.56 0 .56-.56v-24.98a.51.51 0 0 1 .51-.51h25.71ZM135.06 289.52l25.63.01q.53 0 .53.53l-.03 25.38-25.46-.02a.57.57 0 0 1-.57-.57l-.1-25.33Z"/><path fill="#bdbec0" d="m213.53 394.27.04 26.02-26.05.09q-.69-.22-.06.02l.06-25.58q0-.54.54-.54l25.47-.01Z"/><path fill="#e8e9eb" d="m213.53 394.27 104.42.01q.55 0 .56.55l.15 25.46H213.57l-.04-26.02Z"/><path fill="#050608" d="M213.57 420.29h105.09l-.26 51.94q0 .49-.5.49l-25.45.01-.03-25.47a.54.54 0 0 0-.54-.54l-25.8.1-51.76-.31q-.55 0-.55.55l-.02 25.68-25.69-.01q-.53 0-.53-.54l-.01-51.81 26.05-.09Z"/><path fill="#bdbec0" d="m266.08 446.82-.01 26-52.32.22q-.55-.26 0-.3l.02-25.68q0-.55.55-.55l51.76.31Z"/><path fill="#e8e9eb" d="M292.45 472.73q.16-.01.03.52-.17-.05-.25-.22-.09-.22-.32-.22l-25.84.01.01-26 25.8-.1a.54.54 0 0 1 .54.54l.03 25.47Z"/><path fill="#050608" d="m266.07 472.82 25.84-.01q.23 0 .32.22.08.17.25.22v25.26q0 .49-.49.49h-77.73q-.49 0-.49-.49l-.02-25.47 52.32-.22Z"/></svg>